<?xml version="1.0" encoding="utf-8"?>
<!-- Generator: Adobe Illustrator 16.0.0, SVG Export Plug-In . SVG Version: 6.00 Build 0)  -->
<!DOCTYPE svg PUBLIC "-//W3C//DTD SVG 1.1//EN" "http://www.w3.org/Graphics/SVG/1.1/DTD/svg11.dtd">
<svg version="1.1" id="Layer_1" xmlns="http://www.w3.org/2000/svg" xmlns:xlink="http://www.w3.org/1999/xlink" x="0px" y="0px"
	 width="169px" height="79px" viewBox="-2.736 -0.624 169 79" enable-background="new -2.736 -0.624 169 79" xml:space="preserve">
<g>
	<g>
		<g>
			<polygon fill="#1B1B1F" points="127.035,78.376 134.48,78.376 134.48,78.376 159.164,16.661 159.164,78.376 166.078,78.376 
				166.078,-0.624 159.164,-0.624 158.635,-0.624 130.758,69.071 102.883,-0.624 95.435,-0.624 127.035,78.376 			"/>
			<polygon fill="#1B1B1F" points="146.931,-0.624 127.038,49.125 130.758,58.434 154.382,-0.624 			"/>
			<polygon fill="#1B1B1F" points="90.649,78.376 90.649,16.661 115.338,78.376 122.784,78.376 91.185,-0.624 83.742,-0.624 
				83.742,78.376 			"/>
			<polygon fill="#1B1B1F" points="101.513,78.376 101.513,54.454 94.602,37.168 94.602,78.376 			"/>
			<polygon fill="#1B1B1F" points="155.217,78.376 155.217,37.168 148.305,54.454 148.305,78.376 			"/>
		</g>
		<g>
			<polygon fill="#1B1B1F" points="48.193,-0.624 40.746,-0.624 60.492,48.751 28.44,48.751 36.493,28.625 32.77,19.317 
				9.15,78.376 16.596,78.376 25.677,55.665 63.259,55.665 72.345,78.376 79.786,78.376 			"/>
			<polygon fill="#1B1B1F" points="68.092,78.376 60.586,59.616 60.586,59.616 60.586,59.613 28.352,59.613 25.589,66.527 
				55.906,66.527 60.645,78.376 			"/>
			<polygon fill="#1B1B1F" points="54.662,44.802 36.493,-0.624 36.493,-0.624 29.046,-0.624 29.046,-0.624 -2.55,78.376 
				4.896,78.376 32.77,8.684 47.217,44.802 			"/>
		</g>
	</g>
</g>
</svg>
